<?xml version="1.0" standalone="no"?>
<!DOCTYPE svg PUBLIC "-//W3C//DTD SVG 20010904//EN"
 "http://www.w3.org/TR/2001/REC-SVG-20010904/DTD/svg10.dtd">
<svg version="1.0" xmlns="http://www.w3.org/2000/svg"
 width="700.000000pt" height="700.000000pt" viewBox="0 0 700.000000 700.000000"
 preserveAspectRatio="xMidYMid meet">
<metadata>
Created by potrace 1.14, written by Peter Selinger 2001-2017
</metadata>
<g transform="translate(0.000000,700.000000) scale(0.100000,-0.100000)"
fill="#000000" stroke="none">
<path d="M1697 4529 c-1252 -626 -1618 -813 -1615 -826 4 -20 3234 -1627 3254
-1619 12 5 14 264 12 1628 -3 1433 -5 1623 -18 1625 -8 1 -743 -362 -1633
-808z"/>
<path d="M5127 4489 c-1252 -626 -1618 -813 -1615 -826 4 -20 3234 -1627 3254
-1619 12 5 14 264 12 1628 -3 1433 -5 1623 -18 1625 -8 1 -743 -362 -1633
-808z"/>
</g>
</svg>
